<?xml version="1.0" encoding="utf-8"?>
<!-- Generator: Adobe Illustrator 24.3.0, SVG Export Plug-In . SVG Version: 6.00 Build 0)  -->
<svg version="1.1" id="Layer_1" xmlns="http://www.w3.org/2000/svg" xmlns:xlink="http://www.w3.org/1999/xlink" x="0px" y="0px"
	 viewBox="0 0 1920 1080" style="enable-background:new 0 0 1920 1080;" xml:space="preserve">
<style type="text/css">
	.st0{fill:#1d2c40;}
</style>
<g>
	<polygon class="st0" points="-1.28,487 -2,487 -1.54,469.21 	"/>
	<polygon class="st0" points="-0.76,438.81 -1.54,469.21 -2,438.41 	"/>
	<path class="st0" d="M599,768L599,768z"/>
	<polygon class="st0" points="1175.35,1080 1172.86,1080 1171.67,1076.94 	"/>
	<polygon class="st0" points="1175.35,1080 1172.86,1080 1171.67,1076.94 	"/>
	<polygon class="st0" points="1921,490 1920.01,486.95 1920,483.94 1917.77,480.12 1918.7,482.96 1920.01,486.95 1921,1080 
		1184.63,1080 1175.35,1086.41 1172.86,1080 1175.35,1080 1171.67,1076.94 1172.86,1080 0,1080 0.68,619.49 -1.28,487 -1.54,469.21 
		-0.76,438.81 0,409 4,413 90,421 144,486 212,459 524,682 535,713 599,768 849,809 872.06,828.15 1078,836 1319,666 1652,757 
		1747,641 1813,490 1867,444 1849,362 1874,346 1889,312 1924,300 	"/>
	<polygon class="st0" points="1920.01,486.95 1918.7,482.96 1920,483.94 	"/>
	<polygon class="st0" points="1920,483.94 1918.7,482.96 1917.77,480.12 	"/>
	<polygon class="st0" points="1920.01,486.95 1918.7,482.96 1917.77,480.12 1920,483.94 	"/>
</g>
</svg>
