<?xml version="1.0" encoding="utf-8"?>
<!-- Generator: Adobe Illustrator 24.3.0, SVG Export Plug-In . SVG Version: 6.00 Build 0)  -->
<svg version="1.1" id="Layer_1" xmlns="http://www.w3.org/2000/svg" xmlns:xlink="http://www.w3.org/1999/xlink" x="0px" y="0px"
	 viewBox="0 0 1920 1080" style="enable-background:new 0 0 1920 1080;" xml:space="preserve">
<style type="text/css">
	.st0{fill:#0B283E;}
	.st1{fill:#792e3d;}
	.st2{fill:#36557b;}
</style>
<path class="st0" d="M1015.61,771.12c-0.01,0.01-0.03,0.01-0.04,0.01c-0.02-0.06-0.03-0.12-0.05-0.18L1015.61,771.12z"/>
<path class="st0" d="M1015.61,771.12c-0.01,0.01-0.03,0.01-0.04,0.01c-0.02-0.06-0.03-0.12-0.05-0.18L1015.61,771.12z"/>
<path class="st0" d="M1009.03,815.52c-0.12-0.43-0.2-0.85-0.22-1.24L1009.03,815.52z"/>
<polygon class="st0" points="1008.81,814.21 1008.81,814.24 1008.8,814.21 "/>
<path class="st0" d="M1029,763L1029,763z"/>
<path class="st0" d="M1661.5,641.73c-0.87-0.18-1.5-0.41-1.5-0.73C1660,641,1660.56,641.28,1661.5,641.73z"/>
<path class="st1" d="M1709,696c0,0-1.71,1.42-3.6,2.75c0,0-0.06,0.04-0.16,0.1c-1.23,0.86-2.52,1.66-3.46,1.99
	c-2.11,1.07-4.75,2.16-6.78,2.16c-4,0-3.41-2-3.41-2s0.29-2.97,1.35-4.99c0.15-0.29,0.35-0.61,0.58-0.93l-3.43-1.29
	c-0.41,0.21-0.89,0.21-2.09,0.21c-1.1,0-2.21-1.22-2.98-2.31c-0.14-0.21-0.28-0.42-0.4-0.61l-0.14,0.21c0,0-0.01,0.01-0.02,0.03
	c-0.11,0.14-0.58,0.68-1.46,0.68c-1,0-8.01-3.12-8.01-3.12S1666,687,1665,683s1.18-5,1.18-5s3.4-5.34,8.82-10.14
	c0-0.33,0-1.22-0.01-2.49c-0.02-1.29,1.15-3.16,1.65-3.88c0.01-0.03,0.02-0.05,0.04-0.07c0.07-0.12,0.13-0.19,0.15-0.21
	c0.01-0.02,0.02-0.03,0.02-0.03c-0.21-0.52-0.37-1.04-0.49-1.53c-0.47,0.22-0.94,0.35-1.36,0.35c-2,0-2,0-4-3s-4-4-4-6
	c0-1.6-0.64-4.91-0.38-7.02c-2.1-0.87-3.92-1.69-5.12-2.25c-0.94-0.45-1.5-0.73-1.5-0.73s-1.7-1.7-1.96-4.31L1654,634l1-2v-1
	c1-2,2-3,2-3l10.53,7h1.47l0.5,0.35l2.72,1.95l2.9,0.7c2.54,0,4.56-0.38,5.74-0.67c0.07-0.02,0.15-0.04,0.22-0.06
	c0.11-0.04,0.22-0.07,0.32-0.09c0.19-0.06,0.34-0.1,0.44-0.13c0.11-0.03,0.16-0.05,0.16-0.05h0.33c-0.49-0.31-0.98-0.65-1.33-1
	c-0.71-0.71,1.36-4.22,2.61-6.18l0.03-0.05l1.09-2.13l-4.09-2.66c-0.32-0.24,0.36-0.98,0.36-0.98l7,1l1-1c0,0,1-1,2-2s2,0,2,0
	s4,2,5,3s3,2,3,2c0.89,0.45,1,1,1,1l-1,3c-0.74,2.95-1.47,3.18-1.81,3.09c-0.44,1.11-1.12,2.2-2.19,2.91
	c-1.29,0.86-2.35,1.35-3.12,1.62c0.08,0.12,0.12,0.24,0.12,0.38c0,1.41,0.99,3.31,1.58,4.31c0.57,0.15,1.1,0.37,1.42,0.69
	c1,1,7,5,5,8c-1.92,2.88-2.92,7.59-4.76,7.09c0.05,0.11-0.12,0.33-1.01,0.79c0,0,0.77,1.12,0.77,2.12l0.02,0.02
	c0.13,0.14,0.76,0.82,1.28,1.92l2.7,4.06c0,0,1.76,2.18-0.62,2.09c-0.36-0.01-0.77,0.02-1.19,0.09c0.24,2.61,0.5,5.43-0.19,6.82
	c-0.42,0.84-1.01,1.32-1.56,1.6c0,0.19-0.05,0.43-0.16,0.75l0.64,0.99c1.49,0.66,3.85,2.36,7.08,6.66c1,1.33,1.42,2.46,1.42,3.44
	v0.01c0.65,0.7,1.87,2.13,2.58,3.55C1709.45,694.89,1709,696,1709,696z"/>
<path class="st0" d="M1685.02,691.69c-0.22-0.14-0.41-0.26-0.56-0.37c0.01-0.02,0.02-0.03,0.02-0.03l0.14-0.21
	C1684.74,691.27,1684.88,691.48,1685.02,691.69z"/>
<path class="st1" d="M1891.74,275.39c-0.01,0-0.01,0-0.02,0c0,0,0-0.01,0.01-0.01L1891.74,275.39z"/>
<path class="st1" d="M1891.74,275.39c-0.01,0-0.01,0-0.02,0c0,0,0-0.01,0.01-0.01L1891.74,275.39z"/>
<path class="st1" d="M1891.74,275.39c-0.01,0-0.01,0-0.02,0c0,0,0-0.01,0.01-0.01L1891.74,275.39z"/>
<path class="st1" d="M1891.74,275.39c-0.01,0-0.01,0-0.02,0c0,0,0-0.01,0.01-0.01L1891.74,275.39z"/>
<path class="st1" d="M1880,278L1880,278z"/>
<path class="st1" d="M1906.26,269.25l1.48-0.4c0.69-0.19,1.05-0.95,0.77-1.6l-4.15-9.43c-0.18-0.4-0.11-0.86,0.16-1.2l0.16-0.2
	c0.21-0.26,0.3-0.6,0.24-0.93l-0.9-5.39c-0.01-0.06-0.02-0.13-0.02-0.19v-11.63c0-0.56-0.4-1.05-0.95-1.15
	c-0.96-0.18-2.55-0.36-4.35-0.02c0,0-0.04,0-0.11,0.02c-0.02,0-0.05,0.01-0.08,0.01c-0.81,0.11-4.05,0.65-6.51,1.87
	c-2,1-2,6.18-2,6.18v1.33c0,0.31-0.12,0.61-0.34,0.83L1885,252c0,0-1,1.24,0,2.12c0.51,0.45,2.8,0.15,4.94-0.24
	c0.63-0.12,1.24,0.29,1.36,0.93c0.27,1.43,0.56,2.68,0.87,3.77c0.13,0.47-0.05,0.98-0.45,1.26c-1.39,0.96-2.39,1.89-3.1,2.7
	c-0.13,0.15-0.29,0.26-0.47,0.33l-7.38,2.74l-0.27-0.49l-2.07,0.73c-0.39-0.35-1.38,0.12-1.91,0.41c-0.23,0.13-0.5,0.17-0.75,0.12
	c-1.07-0.21-2.39-0.19-3.4,0.72l-1.14-0.07c-0.15-0.01-0.3,0.01-0.45,0.06l-3.83,1.3c-0.24,0.08-0.49,0.08-0.73,0.01l-0.6-0.19
	c-0.39-0.12-0.69-0.44-0.79-0.83l-0.49-1.95c-0.18-0.73-0.99-1.1-1.66-0.76l0,0c-0.42,0.21-0.67,0.65-0.65,1.12l0.31,4.84
	c0.03,0.52-0.28,1-0.78,1.18L1861,272v0.89l-2.41,0.89c-0.39,0.14-0.67,0.49-0.75,0.9c-0.27,1.48-0.51,4.98,2.81,6.63
	c0.25,0.12,0.55,0.14,0.81,0.07l14.78-4c0.27-0.07,0.55-0.03,0.8,0.1c0.52,0.27,1.11,0.47,1.7,0.52c0,0.5,0.24,1.01,1.25,1.01h2.87
	c0.09,0,0.17,0.01,0.25,0.03c0.45,0.1,2.08,0.37,3.36-0.33c0.12-0.06,0.24-0.11,0.37-0.13l2.14-0.33l-2.27,3.69
	c-0.01,0.02-0.03,0.05-0.05,0.07c-1.01,1.37-1.81,2.85-1.86,4.14c-0.01,0.17-0.04,0.34-0.12,0.49c-0.83,1.64-1.47,3.18-1.71,4.38
	c-1,5,4,8,5.77,10.24c0.5,0.64,0.89,1.02,1.18,1.25c0.42,0.32,0.54,0.89,0.35,1.38c-1.59,4.08-2.71,8.7,0.7,8.13
	c5.16-0.86,11.05-4.67,12.61-5.73c0.25-0.17,0.43-0.44,0.49-0.74L1908,286l-0.84-0.17l-1.76-15.32
	C1905.34,269.94,1905.7,269.4,1906.26,269.25z M1891.72,275.39c0,0,0-0.01,0.01-0.01l0.01,0.01
	C1891.73,275.39,1891.73,275.39,1891.72,275.39z"/>
<path class="st1" d="M1040.27,792.62c0,0,0.73,1.38,0.73,3.38c0,0,2,1,3,8c0,0-1,1-3,0c0,0-1.71,1.14-5.14,2.13
	c-0.93,0.84-2.21,1.95-3.51,2.9c0.35,0.37,0.88,0.94,1.45,1.61l2.76,1.83l0.62,1.54c0.65,0.06,2.85,0.43,2.82,2.99
	c-0.04,2.99-0.72,4.71-0.74,4.71c0,0-1.26,7.29-2.26,7.29c0,0-3,2-5-4c-0.32-0.96-0.49-1.72-0.54-2.32l-3.29-1.91l-0.01-0.01
	c-2.01-0.39-4.62-1.16-5.4-1.5L1023,820c0,0,0,4.58-0.67,8.4c0,0,0,0.01,0,0.02c0.04,0.4,0.64,6.31-0.33,6.58c-1,0.28-6,0-14-1
	c0,0-2,0-2-1s0.24-3.6,2-5c0.72-0.57,1.85-1.01,2.94-1.33l-1.91-11.15l-0.22-1.24v-0.07c-0.03-0.46,0.02-0.88,0.19-1.21
	c0.86-1.71,5.38-8.56,8.54-11.73c0.01-0.02,0.02-0.03,0.02-0.03c0.71-1.13,1.57-2.37,2.44-3.24c0.52-0.52,1.1-1.1,1.68-1.68
	c-0.13-0.31-0.29-0.7-0.41-1.08c-1.17-0.74-2.27-1.59-3.16-2.34c-0.64-0.09-1.3-0.21-1.92-0.35c-0.4,0.17-0.79,0.32-1.19,0.45
	c-3,1-12-1-12-1l-1-1c-0.97,0-1.94,0-2.9-1.82L995,789c-1-3,0-5,0-5h2v-2h1l1,2h12.07c0.42-0.31,0.77-0.37,1.55-0.45h0.01l5.72-4.09
	c0.44-0.59,0.99-1.13,1.65-1.46l3.15-2.28c-0.65,0.11-1.25,0.2-1.68,0.25c-1.26,0.59-2.81,1.03-3.47,1.03s-1.76-3.5-2.43-5.87
	c0.01,0,0.03,0,0.04-0.01l-0.09-0.17c0.02,0.06,0.03,0.12,0.05,0.18c-0.82,0.29-1.7,0.58-2.57,0.87c0,0-0.46-3.83-1-6c-1-4,1-8,5-9
	s8-1,11,3c0.78,1.04,1.38,1.81,1.83,2.35c0.16,0.19,0.26,0.33,0.32,0.44c0.5,0.21,0.85,0.21,0.85,0.21s-0.76,0.76-1.61,1.61
	c0.27,0.58,0.61,1.65,0.61,3.39c0,1.75-0.34,2.48-0.62,2.78c0.32,0.66,0.8,1.61,1.2,2.41c0.4,0.26,0.87,0.54,1.42,0.81c2,1,3,1,4,2
	s2,0,2,0s2.53,0,3.26,1c0.74,1,5.74,0,3.74,9C1045,786,1042.8,791.15,1040.27,792.62z"/>
<polygon class="st2" points="236,419 236,419.05 235.95,419.05 235.97,419.03 235.98,419.02 "/>
<polygon class="st2" points="236,419.05 235.95,419.05 235.97,419.03 "/>
<polygon class="st2" points="236,419 236,419.02 235.98,419.02 "/>
<polygon class="st2" points="232.21,421 232,421 232,420.28 232.12,420.17 "/>
<polygon class="st2" points="236,419 236,419.05 235.95,419.05 235.97,419.03 235.95,419.02 235.98,419.02 "/>
<polygon class="st2" points="232.21,421 232,421 232,420.28 232.12,420.17 "/>
<path class="st2" d="M211,411L211,411z"/>
<path class="st2" d="M235.5,417l-0.54-2.68h-1.74V416l-1.22,0.4l-0.19,0.6l-5.31,0.09L225,416h-8.67c-0.17-0.13-0.35-0.26-0.54-0.39
	c-0.38-0.71-1.31-2.39-2.79-4.61c-0.04-0.06-0.09-0.12-0.14-0.18c0.9-0.87,1.46-1.85,1.14-2.82c0,0,0-3.68-0.48-6.72L216,401
	c0,0,2-1,2-2c0-0.78-4.21-2.76-6.1-3.6c-0.73-2.3-1.6-4.4-2.9-4.4c-2,0-5-2-14,4h-0.06c-0.6-0.82-2.08-1.86-4.94,1
	c0,0-0.45,0.62,0.21,2.5c0.03,0.11,0.08,0.22,0.13,0.34l-2.29,1.04l0.34,0.92c0,0,1.08-0.73,2.81,0.9l1.37,2.99l0.16-0.08l2.94,7.15
	c-0.83,0.55-1.54,1.29-2,2.26c-1.03,0.72-2,1.65-3.05,2.98c-1.83,2.31,1.16,6.4,2.64,8.16c-0.16,0.67-0.26,1.3-0.26,1.84
	c0,1.76,1.04,2.15,1.89,2.16c-0.03,0.87,0.06,2.11,0.09,3.19c0,0,0,0,0,0.01c-0.98,1.94-2.98,6.62-1.47,9.81
	c-0.05,1.69-0.03,3.35,0.16,4.21C192.25,448.13,194,449,194,449l0.39,0.1c-2,2.22-3.86,5.85-5.39,8.9c-2,4-1,5-1,5s0,0.74,0.39,1.34
	c-0.39,1.35-0.39,2.5-0.39,3.66c0,2,2,2,2,2l3-3c0,0,5-2,6-1s1,1,1,1c0.25-1.53-0.01-2.86-0.54-4c0.7,0.2,1.18,0.36,1.54,0
	c1-1,3-7,3-7s4-2,4-4c0-1.07,0.57-3.35,1.1-5.26c0.26,2.03,1.08,1.81,1.9,4.26c0.1,0.31,0.29,0.58,0.54,0.82
	c-0.84,1.59-2.54,5.17-2.54,8.18c0,0.43,0.13,0.76,0.35,1.02c-0.68,2.29-1.36,5.65,0.65,4.98c3-1,11,2,14.05,0.62S222,460,222,460
	s1.52-2.54,1.87-5.7c0.36-1.39,0.24-3.44-0.87-6.3c-0.7-1.81-1.37-3.43-2-4.88V443c0-3.16-4.05-8.46-5.75-10.56
	c0,0.01,0,0.01,0,0.02c-0.05-0.07-0.1-0.14-0.15-0.2c0.04,0.06,0.09,0.12,0.15,0.18c-0.11-0.94-0.55-1.84-0.86-2.37
	c0.3-0.27,0.57-0.62,0.76-1.07v-0.01h0.01c2.84-0.05,3.79-0.3,4.03-0.53c0.52,1.24,2,4.54,2.81,4.54c1,0,3-2,3-2s-0.9-0.9-2.1-3.01
	c0.03,0.01,0.07,0.01,0.1,0.01c1.3,0,2.17-2.1,2.63-3.58c0,0,3.56-0.63,1.94-2.3c0.16-0.22,0.28-0.41,0.35-0.58L229,421h3v-0.72
	l0.12-0.11l0.09,0.83h3.77l1.02-1h-1v-0.51l0.61-0.47L238,419c0-1,0-1,0-1h-0.08c0,0,0-0.01,0-0.04L238,418v-1H235.5z M236,419.05
	h-0.05l0.02-0.02l-0.02-0.01h0.03L236,419V419.05z"/>
<path class="st2" d="M215.25,432.44c0,0.01,0,0.01,0,0.02c-0.05-0.07-0.1-0.14-0.15-0.2C215.14,432.32,215.19,432.38,215.25,432.44z
	"/>
<path class="st2" d="M215.25,432.44c0,0.01,0,0.01,0,0.02c-0.05-0.07-0.1-0.14-0.15-0.2C215.14,432.32,215.19,432.38,215.25,432.44z
	"/>
</svg>
