<?xml version="1.0" encoding="utf-8"?>
<!-- Generator: Adobe Illustrator 24.3.0, SVG Export Plug-In . SVG Version: 6.00 Build 0)  -->
<svg version="1.1" id="Layer_1" xmlns="http://www.w3.org/2000/svg" xmlns:xlink="http://www.w3.org/1999/xlink" x="0px" y="0px"
	 viewBox="309 471 1307 133" style="enable-background:new 0 0 1920 1080;" xml:space="preserve">
<style type="text/css">
	.st0{fill:#FFD200;}
	.st1{fill:#FFFFFF;}
</style>
<g>
	<polygon class="st0" points="1423.07,473 1519.61,551.47 1519.61,521.67 1457.55,473 	"/>
	<polygon class="st0" points="1581.66,473 1519.61,521.67 1519.61,551.47 1616.14,473 	"/>
</g>
<g>
	<g>
		<path class="st1" d="M332.05,593.98c-6.95-3.84-12.33-9.26-16.14-16.27c-3.81-7.01-5.71-15.13-5.71-24.36v-35.66
			c0-9.23,1.9-17.35,5.71-24.36s9.19-12.43,16.14-16.27c6.95-3.84,14.99-5.76,24.1-5.76c9.12,0,17.15,1.92,24.1,5.76
			c6.95,3.84,12.33,9.26,16.14,16.27c3.81,7.01,5.71,15.13,5.71,24.36v35.66c0,9.23-1.9,17.35-5.71,24.36
			c-3.81,7.01-9.19,12.43-16.14,16.27c-6.95,3.84-14.99,5.75-24.1,5.75C347.03,599.74,339,597.82,332.05,593.98z M367.4,573.29
			c3.23-1.82,5.73-4.4,7.49-7.75c1.76-3.35,2.64-7.21,2.64-11.6v-36.87c0-4.38-0.88-8.25-2.64-11.6c-1.76-3.35-4.26-5.93-7.49-7.75
			c-3.23-1.82-6.98-2.73-11.25-2.73c-4.27,0-8.02,0.91-11.25,2.73c-3.23,1.82-5.73,4.4-7.49,7.75c-1.76,3.35-2.64,7.21-2.64,11.6
			v36.87c0,4.39,0.88,8.25,2.64,11.6c1.76,3.35,4.25,5.93,7.49,7.75c3.23,1.82,6.98,2.73,11.25,2.73
			C360.42,576.02,364.17,575.11,367.4,573.29z"/>
		<path class="st1" d="M427.21,472.59h23.71v125.84h-23.71V472.59z M438.03,526.77h40.25c2.83,0,5.32-0.65,7.49-1.95
			c2.16-1.3,3.85-3.13,5.06-5.5c1.21-2.37,1.82-5.08,1.82-8.14c0-3.12-0.59-5.87-1.77-8.27c-1.18-2.39-2.86-4.24-5.02-5.54
			c-2.16-1.3-4.69-1.95-7.57-1.95h-40.25v-22.85h39.64c7.85,0,14.76,1.6,20.73,4.8c5.97,3.2,10.6,7.72,13.89,13.54
			c3.29,5.83,4.93,12.58,4.93,20.25c0,7.67-1.64,14.41-4.93,20.21c-3.29,5.8-7.92,10.29-13.89,13.46
			c-5.97,3.17-12.88,4.76-20.73,4.76h-39.64V526.77z"/>
		<path class="st1" d="M537.56,472.59h23.71v125.84h-23.71V472.59z M546.13,472.59h75.73v22.85h-75.73V472.59z M546.13,524.52h66.21
			v22.85h-66.21V524.52z M546.13,575.59h75.73v22.85h-75.73V575.59z"/>
		<path class="st1" d="M643.5,472.59h28.99l46.82,96.42l-2.08,2.25v-98.67h22.68v125.76h-29.17L664.1,503.4l2.08-2.25v97.2H643.5
			V472.59z"/>
		<path class="st1" d="M789.55,597.92c-5.74-1.21-11.14-2.99-16.19-5.32c-5.05-2.34-9.56-5.15-13.54-8.44l10.99-19.56
			c4.85,3.98,10.44,7.05,16.79,9.22c6.35,2.16,12.87,3.25,19.56,3.25c7.73,0,13.73-1.31,18-3.94c4.27-2.63,6.41-6.33,6.41-11.12
			v-0.09c0-3.35-0.95-6-2.86-7.96c-1.9-1.96-4.38-3.4-7.44-4.33c-3.06-0.92-6.98-1.76-11.77-2.51c-0.17-0.06-0.33-0.09-0.47-0.09
			c-0.14,0-0.3-0.03-0.48-0.09l-1.9-0.26c-8.43-1.33-15.41-2.99-20.95-4.98c-5.54-1.99-10.24-5.48-14.11-10.47
			c-3.87-4.99-5.8-12.07-5.8-21.25v-0.09c0-8.14,1.82-15.09,5.45-20.86c3.63-5.77,8.91-10.17,15.84-13.2
			c6.92-3.03,15.29-4.54,25.1-4.54c4.5,0,9.1,0.52,13.8,1.56c4.7,1.04,9.3,2.54,13.8,4.5c4.5,1.96,8.77,4.33,12.81,7.1l-10.04,20.08
			c-4.85-3.35-9.91-5.94-15.19-7.79c-5.28-1.85-10.34-2.77-15.19-2.77c-7.27,0-12.9,1.2-16.88,3.59c-3.98,2.4-5.97,5.76-5.97,10.08
			v0.09c0,3.63,1.04,6.51,3.12,8.61c2.08,2.11,4.64,3.65,7.7,4.63c3.06,0.98,7.36,2.02,12.89,3.12c0.23,0.06,0.46,0.1,0.69,0.13
			c0.23,0.03,0.46,0.07,0.69,0.13c0.35,0.06,0.68,0.13,1,0.22c0.32,0.09,0.65,0.16,1,0.22c7.96,1.56,14.61,3.45,19.95,5.67
			c5.34,2.22,9.79,5.8,13.37,10.73c3.58,4.93,5.37,11.67,5.37,20.21v0.17c0,8.02-1.88,14.89-5.63,20.6
			c-3.75,5.71-9.22,10.07-16.4,13.07c-7.18,3-15.82,4.5-25.92,4.5C801.17,599.74,795.3,599.13,789.55,597.92z"/>
		<path class="st1" d="M896.01,593.98c-6.95-3.84-12.33-9.26-16.14-16.27c-3.81-7.01-5.71-15.13-5.71-24.36v-35.66
			c0-9.23,1.9-17.35,5.71-24.36s9.19-12.43,16.14-16.27c6.95-3.84,14.99-5.76,24.1-5.76c9.12,0,17.15,1.92,24.1,5.76
			c6.95,3.84,12.33,9.26,16.14,16.27c3.81,7.01,5.71,15.13,5.71,24.36v35.66c0,9.23-1.9,17.35-5.71,24.36
			c-3.81,7.01-9.19,12.43-16.14,16.27c-6.95,3.84-14.99,5.75-24.1,5.75C911,599.74,902.96,597.82,896.01,593.98z M931.37,573.29
			c3.23-1.82,5.73-4.4,7.49-7.75c1.76-3.35,2.64-7.21,2.64-11.6v-36.87c0-4.38-0.88-8.25-2.64-11.6c-1.76-3.35-4.26-5.93-7.49-7.75
			c-3.23-1.82-6.98-2.73-11.25-2.73c-4.27,0-8.02,0.91-11.25,2.73s-5.73,4.4-7.49,7.75c-1.76,3.35-2.64,7.21-2.64,11.6v36.87
			c0,4.39,0.88,8.25,2.64,11.6c1.76,3.35,4.25,5.93,7.49,7.75c3.23,1.82,6.98,2.73,11.25,2.73
			C924.39,576.02,928.14,575.11,931.37,573.29z"/>
		<path class="st1" d="M991.17,472.59h23.72v125.84h-23.72V472.59z M1001.73,575.59h73.74v22.85h-73.74V575.59z"/>
		<path class="st1" d="M1092.79,472.59h23.72v125.84h-23.72V472.59z M1104.73,575.59h30.21c7.79,0,13.82-1.87,18.09-5.63
			c4.27-3.75,6.4-9.06,6.4-15.92v-37.04c0-6.87-2.14-12.17-6.4-15.93c-4.27-3.75-10.3-5.63-18.09-5.63h-30.21v-22.85h29.69
			c10.5,0,19.46,1.76,26.87,5.28c7.41,3.52,13.05,8.66,16.92,15.41c3.87,6.75,5.8,14.89,5.8,24.41v35.66
			c0,9.06-1.86,16.96-5.58,23.71s-9.3,12-16.75,15.75c-7.44,3.75-16.56,5.63-27.35,5.63h-29.6V575.59z"/>
		<path class="st1" d="M1245.12,472.59h15.06l48.12,125.84h-25.53l-30.12-85.95l-30.12,85.95h-25.53L1245.12,472.59z M1220.1,555.42
			h66.21v22.85h-66.21V555.42z"/>
		<path class="st1" d="M1306.57,472.59h92.26v22.85h-92.26V472.59z M1340.84,482.89h23.71v115.54h-23.71V482.89z"/>
	</g>
</g>
<g id="Layer_2">
</g>
<polygon class="st0" points="1423.07,473 1519.61,551.47 1616.14,473 1581.66,473 1519.61,521.67 1457.55,473 "/>
<polygon class="st0" points="1422.86,524.53 1519.39,603 1615.92,524.53 1581.45,524.53 1519.39,573.2 1457.33,524.53 "/>
</svg>
